<svg xmlns="http://www.w3.org/2000/svg" viewBox="0 0 320 320" width="320" height="320"><clipPath id="ballclip-160-66"><circle cx="160" cy="66" r="24"/></clipPath><circle cx="160" cy="66" r="24" fill="#ffffff" stroke="#1a1a1a" stroke-width="2.5"/><polygon points="160.0,55.4 170.0,62.7 166.2,74.5 153.8,74.5 150.0,62.7" fill="#1a1a1a"/><g clip-path="url(#ballclip-160-66)"><polygon points="169.0,45.4 162.8,53.9 152.7,50.6 152.7,40.1 162.8,36.8" fill="#1a1a1a"/><polygon points="182.4,68.2 172.4,64.9 172.4,54.3 182.4,51.1 188.6,59.6" fill="#1a1a1a"/><polygon points="164.9,88.0 164.9,77.4 174.9,74.2 181.1,82.7 174.9,91.2" fill="#1a1a1a"/><polygon points="140.6,77.4 150.6,74.2 156.8,82.7 150.6,91.2 140.6,88.0" fill="#1a1a1a"/><polygon points="143.1,51.1 149.3,59.6 143.1,68.2 133.1,64.9 133.1,54.3" fill="#1a1a1a"/></g><path d="M136 66 A24 24 0 0 1 184 66" stroke="#00000022" stroke-width="2" fill="none"/>
      <rect x="91" y="140" width="138" height="12" rx="4" fill="#8A5A28"/>
      <rect x="95" y="152" width="130" height="138" fill="#D89B5E" stroke="#9C6B32" stroke-width="4"/>
      <rect x="105" y="162" width="50.0" height="118" rx="6" fill="none" stroke="#9C6B32" stroke-width="2.5" opacity="0.7"/>
      <rect x="165.0" y="162" width="50.0" height="118" rx="6" fill="none" stroke="#9C6B32" stroke-width="2.5" opacity="0.7"/>
      <line x1="160.0" y1="152" x2="160.0" y2="290" stroke="#9C6B32" stroke-width="3"/>
      <rect x="95" y="152" width="130" height="138" fill="none" stroke="#9C6B32" stroke-width="4"/>
      <circle cx="144.0" cy="221.0" r="5" fill="#E3B23C" stroke="#8A5A28" stroke-width="1.5"/>
      <circle cx="176.0" cy="221.0" r="5" fill="#E3B23C" stroke="#8A5A28" stroke-width="1.5"/>
    <line x1="20" y1="298" x2="300" y2="298" stroke="#E7E3DA" stroke-width="6" stroke-linecap="round"/></svg>